<svg xmlns="http://www.w3.org/2000/svg" xmlns:xlink="http://www.w3.org/1999/xlink" contentStyleType="text/css" height="651px" preserveAspectRatio="none" style="width:965px;height:651px;background:#FFFFFF;" version="1.1" viewBox="0 0 965 651" width="965px" zoomAndPan="magnify"><title>&#20449;  &#24687;  &#27969;  &#21160;  &#22270;</title><defs/><g><text fill="#000000" font-family="sans-serif" font-size="14" font-weight="bold" lengthAdjust="spacing" textLength="80.999" x="435.0005" y="22.9951">&#20449;  &#24687;  &#27969;  &#21160;  &#22270;</text><!--cluster cnblogs ?  ?--><g id="cluster_cnblogs &#21338;  &#23458;"><path d="M171.5,43.2969 L264.9834,43.2969 A3.75,3.75 0 0 1 267.4834,45.7969 L274.4834,65.5938 L598.5,65.5938 A2.5,2.5 0 0 1 601,68.0938 L601,136.7969 A2.5,2.5 0 0 1 598.5,139.2969 L171.5,139.2969 A2.5,2.5 0 0 1 169,136.7969 L169,45.7969 A2.5,2.5 0 0 1 171.5,43.2969 " fill="none" style="stroke:#000000;stroke-width:1.5;"/><line style="stroke:#000000;stroke-width:1.5;" x1="169" x2="274.4834" y1="65.5938" y2="65.5938"/><text fill="#000000" font-family="sans-serif" font-size="14" font-weight="bold" lengthAdjust="spacing" textLength="92.4834" x="173" y="58.292">cnblogs &#21338;  &#23458;</text></g><!--cluster ?  ?  ?  ?--><g id="cluster_&#32534;  &#31243;  &#25509;  &#21475;"><rect fill="none" height="97" rx="2.5" ry="2.5" style="stroke:#181818;stroke-width:1.0;" width="316" x="163" y="163.2969"/><rect fill="none" height="10" style="stroke:#181818;stroke-width:1.0;" width="15" x="459" y="168.2969"/><rect fill="none" height="2" style="stroke:#181818;stroke-width:1.0;" width="4" x="457" y="170.2969"/><rect fill="none" height="2" style="stroke:#181818;stroke-width:1.0;" width="4" x="457" y="174.2969"/><text fill="#000000" font-family="sans-serif" font-size="14" font-weight="bold" lengthAdjust="spacing" textLength="62.8496" x="289.5752" y="189.292">&#32534;  &#31243;  &#25509;  &#21475;</text></g><!--cluster Weapp--><g id="cluster_Weapp"><rect fill="none" height="265" rx="2.5" ry="2.5" style="stroke:#181818;stroke-width:1.0;" width="287.5" x="671.5" y="221.2969"/><rect fill="none" height="10" style="stroke:#181818;stroke-width:1.0;" width="15" x="939" y="226.2969"/><rect fill="none" height="2" style="stroke:#181818;stroke-width:1.0;" width="4" x="937" y="228.2969"/><rect fill="none" height="2" style="stroke:#181818;stroke-width:1.0;" width="4" x="937" y="232.2969"/><text fill="#000000" font-family="sans-serif" font-size="14" font-weight="bold" lengthAdjust="spacing" textLength="54.4277" x="788.0361" y="247.292">Weapp</text></g><!--cluster GitHub Pages--><g id="cluster_GitHub Pages"><rect fill="none" height="174.5" rx="2.5" ry="2.5" style="stroke:#181818;stroke-width:1.0;" width="558" x="7" y="326.7969"/><rect fill="none" height="10" style="stroke:#181818;stroke-width:1.0;" width="15" x="545" y="331.7969"/><rect fill="none" height="2" style="stroke:#181818;stroke-width:1.0;" width="4" x="543" y="333.7969"/><rect fill="none" height="2" style="stroke:#181818;stroke-width:1.0;" width="4" x="543" y="337.7969"/><text fill="#000000" font-family="sans-serif" font-size="14" font-weight="bold" lengthAdjust="spacing" textLength="107.1191" x="232.4404" y="352.792">GitHub Pages</text></g><!--cluster ?  ?  ?--><g id="cluster_&#20449;  &#24687;  &#28304;"><path d="M323.5,517.2969 L369.2002,517.2969 A3.75,3.75 0 0 1 371.7002,519.7969 L378.7002,539.5938 L579.5,539.5938 A2.5,2.5 0 0 1 582,542.0938 L582,641.7969 A2.5,2.5 0 0 1 579.5,644.2969 L323.5,644.2969 A2.5,2.5 0 0 1 321,641.7969 L321,519.7969 A2.5,2.5 0 0 1 323.5,517.2969 " fill="none" style="stroke:#000000;stroke-width:1.5;"/><line style="stroke:#000000;stroke-width:1.5;" x1="321" x2="378.7002" y1="539.5938" y2="539.5938"/><text fill="#000000" font-family="sans-serif" font-size="14" font-weight="bold" lengthAdjust="spacing" textLength="44.7002" x="325" y="532.292">&#20449;  &#24687;  &#28304;</text></g><!--entity db_acts--><g id="elem_db_acts"><path d="M469.5,88.2969 C469.5,78.2969 526.9551,78.2969 526.9551,78.2969 C526.9551,78.2969 584.4102,78.2969 584.4102,88.2969 L584.4102,113.5938 C584.4102,123.5938 526.9551,123.5938 526.9551,123.5938 C526.9551,123.5938 469.5,123.5938 469.5,113.5938 L469.5,88.2969 " fill="#F1F1F1" style="stroke:#181818;stroke-width:0.5;"/><path d="M469.5,88.2969 C469.5,98.2969 526.9551,98.2969 526.9551,98.2969 C526.9551,98.2969 584.4102,98.2969 584.4102,88.2969 " fill="none" style="stroke:#181818;stroke-width:0.5;"/><text fill="#000000" font-family="sans-serif" font-size="14" lengthAdjust="spacing" textLength="94.9102" x="479.5" y="115.292">&#27963;  &#21160;  &#21015;  &#34920;  &#35780;  &#35770;</text></g><!--entity db_groups--><g id="elem_db_groups"><path d="M336,88.2969 C336,78.2969 384.8042,78.2969 384.8042,78.2969 C384.8042,78.2969 433.6084,78.2969 433.6084,88.2969 L433.6084,113.5938 C433.6084,123.5938 384.8042,123.5938 384.8042,123.5938 C384.8042,123.5938 336,123.5938 336,113.5938 L336,88.2969 " fill="#F1F1F1" style="stroke:#181818;stroke-width:0.5;"/><path d="M336,88.2969 C336,98.2969 384.8042,98.2969 384.8042,98.2969 C384.8042,98.2969 433.6084,98.2969 433.6084,88.2969 " fill="none" style="stroke:#181818;stroke-width:0.5;"/><text fill="#000000" font-family="sans-serif" font-size="14" lengthAdjust="spacing" textLength="77.6084" x="346" y="115.292">&#29992;  &#25143;  &#32452;  &#21338;  &#25991;</text></g><!--entity db_version--><g id="elem_db_version"><path d="M185.5,88.2969 C185.5,78.2969 242.9551,78.2969 242.9551,78.2969 C242.9551,78.2969 300.4102,78.2969 300.4102,88.2969 L300.4102,113.5938 C300.4102,123.5938 242.9551,123.5938 242.9551,123.5938 C242.9551,123.5938 185.5,123.5938 185.5,113.5938 L185.5,88.2969 " fill="#F1F1F1" style="stroke:#181818;stroke-width:0.5;"/><path d="M185.5,88.2969 C185.5,98.2969 242.9551,98.2969 242.9551,98.2969 C242.9551,98.2969 300.4102,98.2969 300.4102,88.2969 " fill="none" style="stroke:#181818;stroke-width:0.5;"/><text fill="#000000" font-family="sans-serif" font-size="14" lengthAdjust="spacing" textLength="94.9102" x="195.5" y="115.292">&#27963;  &#21160;  &#32034;  &#24341;  &#21338;  &#25991;</text></g><!--entity dbapi_cnbapi--><g id="elem_dbapi_cnbapi"><rect fill="#F1F1F1" height="46.2969" rx="2.5" ry="2.5" style="stroke:#181818;stroke-width:0.5;" width="120.6914" x="341.5" y="198.2969"/><rect fill="#F1F1F1" height="10" style="stroke:#181818;stroke-width:0.5;" width="15" x="442.1914" y="203.2969"/><rect fill="#F1F1F1" height="2" style="stroke:#181818;stroke-width:0.5;" width="4" x="440.1914" y="205.2969"/><rect fill="#F1F1F1" height="2" style="stroke:#181818;stroke-width:0.5;" width="4" x="440.1914" y="209.2969"/><text fill="#000000" font-family="sans-serif" font-size="14" lengthAdjust="spacing" textLength="80.6914" x="356.5" y="231.292">cnblogs API</text></g><!--entity dbapi_metaweblog--><g id="elem_dbapi_metaweblog"><rect fill="#F1F1F1" height="46.2969" rx="2.5" ry="2.5" style="stroke:#181818;stroke-width:0.5;" width="127.4453" x="179.5" y="198.2969"/><rect fill="#F1F1F1" height="10" style="stroke:#181818;stroke-width:0.5;" width="15" x="286.9453" y="203.2969"/><rect fill="#F1F1F1" height="2" style="stroke:#181818;stroke-width:0.5;" width="4" x="284.9453" y="205.2969"/><rect fill="#F1F1F1" height="2" style="stroke:#181818;stroke-width:0.5;" width="4" x="284.9453" y="209.2969"/><text fill="#000000" font-family="sans-serif" font-size="14" lengthAdjust="spacing" textLength="87.4453" x="194.5" y="231.292">MetaWeblog</text></g><text fill="#000000" font-family="sans-serif" font-size="14" lengthAdjust="spacing" textLength="82.0176" x="648.4912" y="199.9951">&#26500; &#24314; &#26102; secret</text><rect fill="#F1F1F1" height="12" style="stroke:#181818;stroke-width:1.5;" width="12" x="683.5" y="215.2969"/><!--entity weapp_groups--><g id="elem_weapp_groups"><path d="M845,314.2969 C845,304.2969 893.8042,304.2969 893.8042,304.2969 C893.8042,304.2969 942.6084,304.2969 942.6084,314.2969 L942.6084,339.5938 C942.6084,349.5938 893.8042,349.5938 893.8042,349.5938 C893.8042,349.5938 845,349.5938 845,339.5938 L845,314.2969 " fill="#F1F1F1" style="stroke:#181818;stroke-width:0.5;"/><path d="M845,314.2969 C845,324.2969 893.8042,324.2969 893.8042,324.2969 C893.8042,324.2969 942.6084,324.2969 942.6084,314.2969 " fill="none" style="stroke:#181818;stroke-width:0.5;"/><text fill="#000000" font-family="sans-serif" font-size="14" lengthAdjust="spacing" textLength="77.6084" x="855" y="341.292">&#32531;  &#23384;  &#29992;  &#25143;  &#32452;</text></g><!--entity weapp_acts--><g id="elem_weapp_acts"><path d="M694.5,314.2969 C694.5,304.2969 751.9551,304.2969 751.9551,304.2969 C751.9551,304.2969 809.4102,304.2969 809.4102,314.2969 L809.4102,339.5938 C809.4102,349.5938 751.9551,349.5938 751.9551,349.5938 C751.9551,349.5938 694.5,349.5938 694.5,339.5938 L694.5,314.2969 " fill="#F1F1F1" style="stroke:#181818;stroke-width:0.5;"/><path d="M694.5,314.2969 C694.5,324.2969 751.9551,324.2969 751.9551,324.2969 C751.9551,324.2969 809.4102,324.2969 809.4102,314.2969 " fill="none" style="stroke:#181818;stroke-width:0.5;"/><text fill="#000000" font-family="sans-serif" font-size="14" lengthAdjust="spacing" textLength="94.9102" x="704.5" y="341.292">&#32531;  &#23384;  &#27963;  &#21160;  &#21015;  &#34920;</text></g><!--entity weapp_tody--><g id="elem_weapp_tody"><rect fill="#F1F1F1" height="46.2969" rx="2.5" ry="2.5" style="stroke:#181818;stroke-width:0.5;" width="134.9102" x="745.5" y="424.2969"/><rect fill="#F1F1F1" height="10" style="stroke:#181818;stroke-width:0.5;" width="15" x="860.4102" y="429.2969"/><rect fill="#F1F1F1" height="2" style="stroke:#181818;stroke-width:0.5;" width="4" x="858.4102" y="431.2969"/><rect fill="#F1F1F1" height="2" style="stroke:#181818;stroke-width:0.5;" width="4" x="858.4102" y="435.2969"/><text fill="#000000" font-family="sans-serif" font-size="14" lengthAdjust="spacing" textLength="94.9102" x="760.5" y="457.292">&#24403;  &#26085;  &#27963;  &#21160;  &#26174;  &#31034;</text></g><text fill="#000000" font-family="sans-serif" font-size="14" lengthAdjust="spacing" textLength="69.166" x="367.417" y="305.4951">&#29992; &#25143; secret</text><rect fill="#F1F1F1" height="12" style="stroke:#181818;stroke-width:1.5;" width="12" x="396" y="320.7969"/><text fill="#000000" font-family="sans-serif" font-size="14" lengthAdjust="spacing" textLength="65.3516" x="208.8242" y="305.4951">&#29992; &#25143; token</text><rect fill="#F1F1F1" height="12" style="stroke:#181818;stroke-width:1.5;" width="12" x="235.5" y="320.7969"/><!--entity pages_groups--><g id="elem_pages_groups"><rect fill="#F1F1F1" height="46.2969" rx="2.5" ry="2.5" style="stroke:#181818;stroke-width:0.5;" width="117.6084" x="182" y="424.2969"/><rect fill="#F1F1F1" height="10" style="stroke:#181818;stroke-width:0.5;" width="15" x="279.6084" y="429.2969"/><rect fill="#F1F1F1" height="2" style="stroke:#181818;stroke-width:0.5;" width="4" x="277.6084" y="431.2969"/><rect fill="#F1F1F1" height="2" style="stroke:#181818;stroke-width:0.5;" width="4" x="277.6084" y="435.2969"/><text fill="#000000" font-family="sans-serif" font-size="14" lengthAdjust="spacing" textLength="77.6084" x="197" y="457.292">&#29992;  &#25143;  &#32452;  &#31649;  &#29702;</text></g><!--entity pages_acts--><g id="elem_pages_acts"><rect fill="#F1F1F1" height="46.2969" rx="2.5" ry="2.5" style="stroke:#181818;stroke-width:0.5;" width="134.9102" x="335.5" y="424.2969"/><rect fill="#F1F1F1" height="10" style="stroke:#181818;stroke-width:0.5;" width="15" x="450.4102" y="429.2969"/><rect fill="#F1F1F1" height="2" style="stroke:#181818;stroke-width:0.5;" width="4" x="448.4102" y="431.2969"/><rect fill="#F1F1F1" height="2" style="stroke:#181818;stroke-width:0.5;" width="4" x="448.4102" y="435.2969"/><text fill="#000000" font-family="sans-serif" font-size="14" lengthAdjust="spacing" textLength="94.9102" x="350.5" y="457.292">&#27963;  &#21160;  &#28155;  &#21152;  &#20462;  &#25913;</text></g><!--entity pages_admin--><g id="elem_pages_admin"><ellipse cx="527.0024" cy="417.7969" fill="#F1F1F1" rx="8" ry="8" style="stroke:#181818;stroke-width:0.5;"/><path d="M527.0024,425.7969 L527.0024,452.7969 M514.0024,433.7969 L540.0024,433.7969 M527.0024,452.7969 L514.0024,467.7969 M527.0024,452.7969 L540.0024,467.7969 " fill="none" style="stroke:#181818;stroke-width:0.5;"/><text fill="#000000" font-family="sans-serif" font-size="14" lengthAdjust="spacing" textLength="43.0049" x="505.5" y="482.292">&#31649;  &#29702;  &#21592;</text></g><!--entity fm_org--><g id="elem_fm_org"><ellipse cx="526.8042" cy="560.7969" fill="#F1F1F1" rx="8" ry="8" style="stroke:#181818;stroke-width:0.5;"/><path d="M526.8042,568.7969 L526.8042,595.7969 M513.8042,576.7969 L539.8042,576.7969 M526.8042,595.7969 L513.8042,610.7969 M526.8042,595.7969 L539.8042,610.7969 " fill="none" style="stroke:#181818;stroke-width:0.5;"/><text fill="#000000" font-family="sans-serif" font-size="14" lengthAdjust="spacing" textLength="77.6084" x="488" y="625.292">&#27963;  &#21160;  &#32452;  &#32455;  &#32773;</text></g><!--entity fm_info--><g id="elem_fm_info"><rect fill="#F1F1F1" height="32.2969" rx="2.5" ry="2.5" style="stroke:#181818;stroke-width:0.5;" width="110.9102" x="341.5" y="576.2969"/><rect fill="#F1F1F1" height="32.2969" rx="2.5" ry="2.5" style="stroke:#181818;stroke-width:0.5;" width="110.9102" x="337.5" y="572.2969"/><text fill="#000000" font-family="sans-serif" font-size="14" lengthAdjust="spacing" textLength="94.9102" x="345.5" y="593.292">&#27963;  &#21160;  &#21457;  &#24067;  &#20449;  &#24687;</text></g><!--link db_acts to dbapi_cnbapi--><g id="link_db_acts_dbapi_cnbapi"><path d="M499.7164,127.6556 C477.4464,148.7756 452.4943,172.4289 429.9843,193.7689 " fill="none" id="db_acts-dbapi_cnbapi" style="stroke:#181818;stroke-width:1.0;"/><polygon fill="#181818" points="504.07,123.5269,494.7872,126.8176,500.442,126.9675,500.2922,132.6224,504.07,123.5269" style="stroke:#181818;stroke-width:1.0;"/><polygon fill="#181818" points="425.63,197.8969,434.9134,194.6078,429.2586,194.4569,429.4095,188.8021,425.63,197.8969" style="stroke:#181818;stroke-width:1.0;"/></g><!--link db_groups to dbapi_cnbapi--><g id="link_db_groups_dbapi_cnbapi"><path d="M388.12,123.5269 C391.15,144.6469 394.8784,170.6176 397.9384,191.9576 " fill="none" id="db_groups-to-dbapi_cnbapi" style="stroke:#181818;stroke-width:1.0;"/><polygon fill="#181818" points="398.79,197.8969,401.472,188.4202,398.0803,192.9475,393.553,189.5558,398.79,197.8969" style="stroke:#181818;stroke-width:1.0;"/></g><!--link db_version to dbapi_cnbapi--><g id="link_db_version_dbapi_cnbapi"><path d="M277.47,123.3569 C292.07,132.8069 309.12,144.2369 324,155.2969 C342.25,168.8669 357.3643,181.3407 372.3843,194.2807 " fill="none" id="db_version-to-dbapi_cnbapi" style="stroke:#181818;stroke-width:1.0;"/><polygon fill="#181818" points="376.93,198.1969,372.7223,189.2921,373.1419,194.9334,367.5007,195.353,376.93,198.1969" style="stroke:#181818;stroke-width:1.0;"/></g><!--reverse link db_groups to dbapi_metaweblog--><g id="link_db_groups_dbapi_metaweblog"><path d="M354.3532,127.371 C329.0432,148.491 295.41,176.5569 269.84,197.8969 " fill="none" id="db_groups-backto-dbapi_metaweblog" style="stroke:#181818;stroke-width:1.0;"/><polygon fill="#181818" points="358.96,123.5269,349.487,126.2219,355.121,126.7303,354.6126,132.3643,358.96,123.5269" style="stroke:#181818;stroke-width:1.0;"/></g><!--reverse link db_version to dbapi_metaweblog--><g id="link_db_version_dbapi_metaweblog"><path d="M243,129.5269 C243,150.6469 243,176.5569 243,197.8969 " fill="none" id="db_version-backto-dbapi_metaweblog" style="stroke:#181818;stroke-width:1.0;"/><polygon fill="#181818" points="243,123.5269,239,132.5269,243,128.5269,247,132.5269,243,123.5269" style="stroke:#181818;stroke-width:1.0;"/></g><!--link weapp_secret to weapp_groups--><g id="link_weapp_secret_weapp_groups"><path d="M695.89,225.2869 C718.36,236.6869 794.7194,275.4219 845.9194,301.4019 " fill="none" id="weapp_secret-to-weapp_groups" style="stroke:#181818;stroke-width:1.0;"/><polygon fill="#181818" points="851.27,304.1169,845.0541,296.4773,846.8112,301.8544,841.4341,303.6114,851.27,304.1169" style="stroke:#181818;stroke-width:1.0;"/></g><!--link weapp_secret to weapp_acts--><g id="link_weapp_secret_weapp_acts"><path d="M693.16,227.5669 C701.45,241.4169 721.1174,274.2393 735.7774,298.7193 " fill="none" id="weapp_secret-to-weapp_acts" style="stroke:#181818;stroke-width:1.0;"/><polygon fill="#181818" points="738.86,303.8669,737.6677,294.0904,736.2911,299.5772,730.8043,298.2006,738.86,303.8669" style="stroke:#181818;stroke-width:1.0;"/></g><!--link weapp_acts to weapp_tody--><g id="link_weapp_acts_weapp_tody"><path d="M763.19,349.5269 C774.06,370.6469 787.7329,397.2227 798.7229,418.5627 " fill="none" id="weapp_acts-to-weapp_tody" style="stroke:#181818;stroke-width:1.0;"/><polygon fill="#181818" points="801.47,423.8969,800.9055,414.0642,799.1808,419.4517,793.7933,417.727,801.47,423.8969" style="stroke:#181818;stroke-width:1.0;"/></g><!--link weapp_groups to weapp_tody--><g id="link_weapp_groups_weapp_tody"><path d="M879.14,349.5269 C864.71,370.6469 846.2864,397.6038 831.6964,418.9438 " fill="none" id="weapp_groups-to-weapp_tody" style="stroke:#181818;stroke-width:1.0;"/><polygon fill="#181818" points="828.31,423.8969,836.6916,418.7249,831.132,419.7693,830.0875,414.2097,828.31,423.8969" style="stroke:#181818;stroke-width:1.0;"/></g><!--link dbapi_cnbapi to weapp_secret--><g id="link_dbapi_cnbapi_weapp_secret"><path d="M462.61,221.2969 C536.6,221.2969 650.39,221.2969 677.45,221.2969 " fill="none" id="dbapi_cnbapi-to-weapp_secret" style="stroke:#181818;stroke-width:1.0;"/><polygon fill="#181818" points="683.45,221.2969,674.45,217.2969,678.45,221.2969,674.45,225.2969,683.45,221.2969" style="stroke:#181818;stroke-width:1.0;"/></g><!--reverse link pages_token to pages_groups--><g id="link_pages_token_pages_groups"><path d="M241.9097,338.8867 C241.7797,354.3967 241.43,395.6969 241.19,424.0769 " fill="none" id="pages_token-backto-pages_groups" style="stroke:#181818;stroke-width:1.0;"/><polygon fill="#181818" points="241.96,332.8869,237.8847,341.853,241.9181,337.8867,245.8844,341.9201,241.96,332.8869" style="stroke:#181818;stroke-width:1.0;"/></g><!--reverse link pages_secret to pages_acts--><g id="link_pages_secret_pages_acts"><path d="M402.0903,338.8867 C402.2203,354.3967 402.57,395.6969 402.81,424.0769 " fill="none" id="pages_secret-backto-pages_acts" style="stroke:#181818;stroke-width:1.0;"/><polygon fill="#181818" points="402.04,332.8869,398.1156,341.9201,402.0819,337.8867,406.1153,341.853,402.04,332.8869" style="stroke:#181818;stroke-width:1.0;"/></g><!--reverse link pages_groups to pages_admin--><g id="link_pages_groups_pages_admin"><path d="M266.853,419.9955 C284.543,402.8055 306.97,384.9269 335.5,375.2969 C392.35,356.1069 416.54,349.0569 470.5,375.2969 C485.36,382.5269 497.47,395.7669 506.61,408.9369 " fill="none" id="pages_groups-backto-pages_admin" style="stroke:#181818;stroke-width:1.0;"/><polygon fill="#181818" points="262.55,424.1769,271.7921,420.7735,266.1358,420.6924,266.2169,415.0361,262.55,424.1769" style="stroke:#181818;stroke-width:1.0;"/></g><!--reverse link dbapi_metaweblog to pages_token--><g id="link_dbapi_metaweblog_pages_token"><path d="M242.7312,250.4966 C242.4912,274.9766 242.18,306.6969 242.05,320.5069 " fill="none" id="dbapi_metaweblog-backto-pages_token" style="stroke:#181818;stroke-width:1.0;"/><polygon fill="#181818" points="242.79,244.4969,238.702,253.4572,242.741,249.4966,246.7016,253.5357,242.79,244.4969" style="stroke:#181818;stroke-width:1.0;"/></g><!--reverse link dbapi_cnbapi to pages_secret--><g id="link_dbapi_cnbapi_pages_secret"><path d="M402,250.4969 C402,274.9769 402,306.6969 402,320.5069 " fill="none" id="dbapi_cnbapi-backto-pages_secret" style="stroke:#181818;stroke-width:1.0;"/><polygon fill="#181818" points="402,244.4969,398,253.4969,402,249.4969,406,253.4969,402,244.4969" style="stroke:#181818;stroke-width:1.0;"/></g><!--reverse link pages_acts to fm_org--><g id="link_pages_acts_fm_org"><path d="M434.5376,474.474 C447.2676,485.544 457.79,495.5269 470,509.2969 C481.77,522.5669 493.38,538.2569 503.03,552.2069 " fill="none" id="pages_acts-backto-fm_org" style="stroke:#181818;stroke-width:1.0;"/><polygon fill="#181818" points="430.01,470.5369,434.1766,479.461,433.783,473.8178,439.4261,473.4242,430.01,470.5369" style="stroke:#181818;stroke-width:1.0;"/></g><!--reverse link pages_acts to fm_info--><g id="link_pages_acts_fm_info"><path d="M401.41,476.3172 C399.81,504.5072 397.41,546.7569 395.96,572.2869 " fill="none" id="pages_acts-backto-fm_info" style="stroke:#181818;stroke-width:1.0;"/><polygon fill="#181818" points="401.75,470.3269,397.2464,479.0857,401.4667,475.3188,405.2336,479.5391,401.75,470.3269" style="stroke:#181818;stroke-width:1.0;"/></g><!--reverse link pages_admin to fm_org--><g id="link_pages_admin_fm_org"><path d="M527,491.3469 C527,511.9069 527,531.4069 527,552.0069 " fill="none" id="pages_admin-backto-fm_org" style="stroke:#181818;stroke-width:1.0;"/><polygon fill="#181818" points="527,485.3469,523,494.3469,527,490.3469,531,494.3469,527,485.3469" style="stroke:#181818;stroke-width:1.0;"/></g><!--SRC=[VLJBRjD055tNNt6LVVy08R425aZTTHbDd6baDV5OdYaLGaXK55g1eAqeJGGIeeLAtP1k2eKab9yXTZ-3u_7hJXtOZCTppxcFSsUk2KnVqf_VnqJ9rZcMRrj4yvTdM3vSUP7mrqLFKiiFEttLqpH__HwMyKcB7djBNM54HsYOaujfoTeT4bqVOtTzlerbF6cHqDJjj8LlDEUaXm0bkvT4wHH8wpavsYdXlLXjH7fnaFJY1BlPkoRheOnre4BlYUUhGQH26Hf4cXs1S_OAo3UduEnzjkapH5dUdPNxXISH1MsSukC07qWZLcK6PhW13ZVj8U8MbTAjvUNRhf-gA5faAZAd_z3WiXcHKHVQMVAhKaIHBJrIiGb2IFfnc-RJ2IN3xwIb7qjZozhCWEtym6dPx2ta-pg2chnvZDFiMirfNX96p6y7ItR-2xnaUCfvoUWA0RzC6C-exYDlYITi5NIp-OSvZrdlcOcxPKrZngpJTPUeCXQgiKhk1kRUHeTMy92qetucOgOXKpxAG9NoDu56hSkGuUo_ezgDHvMEyQxJ_HUCKsh2I4pWIxlxH9W8O_mU_cJCN2wiAaQWmZFW1oCEwWu2fCJoizVIZSshPEOy08V2wFWjHQ_lDwFdQZXTgOs5fDL0OnDlic-xKXJ6fenLSBg3g_hqkIrnRT1MSI_Jhj-Nli6Rqyxispl0ykCPLVEqP0NXcaBoTPasiy9TyzJ2MTqC_HS0]--></g></svg>